<svg width="195" height="18" fill="none" xmlns="http://www.w3.org/2000/svg"><path d="M3.62 1.025V17H.32V1.025h3.3Zm9.55 0V17H9.884V1.025h3.288Zm-10.962 9.15V7.437h8.925v2.738H2.208ZM18.486 17h-3.313l4.713-15.975h4.987L29.573 17h-3.312L22.536 3.187h-.3L18.486 17Zm7.487-4.075h-7.225v-2.613h7.225v2.613Zm10.62-.313h-2.9L28.207 1.026h3.45l2.338 5.262 1.05 2.625h.187l1.05-2.625 2.325-5.262h3.45l-5.462 11.588ZM36.757 17h-3.225V9.637h3.225V17Zm10.42-15.975V17h-3.3V1.025h3.3ZM45.726 17v-2.762h8.362V17h-8.362Zm13.801 0h-3.225V1.025h3.225V17Zm7.55 0h-9.812v-2.738h9.812V17Zm-.287-6.787h-8.613V7.55h8.613v2.663Zm.187-6.475h-9.725V1.024h9.725v2.712Zm9.778 8.874h-2.9L68.368 1.026h3.45l2.337 5.262 1.05 2.625h.188l1.05-2.625 2.325-5.262h3.45l-5.463 11.588ZM76.918 17h-3.225V9.637h3.225V17ZM93.39 1.025V17h-3.3V1.025h3.3Zm9.55 0V17h-3.287V1.025h3.287Zm-10.962 9.15V7.437h8.925v2.738h-8.925ZM108.256 17h-3.312l4.712-15.975h4.988l4.7 15.975h-3.313l-3.725-13.813h-.3L108.256 17Zm7.488-4.075h-7.225v-2.613h7.225v2.613Zm10.146 4.412c-1.217 0-2.237-.254-3.062-.762-.817-.517-1.434-1.258-1.85-2.225-.409-.975-.613-2.15-.613-3.525V7.65c0-2.258.6-3.983 1.8-5.175 1.208-1.192 2.975-1.788 5.3-1.788.75 0 1.438.059 2.063.175.633.109 1.204.25 1.712.426.517.166.963.354 1.338.562l.275 2.825a11.882 11.882 0 0 0-2.088-.825c-.783-.242-1.675-.363-2.675-.363-1.5 0-2.604.359-3.312 1.075-.709.717-1.063 1.796-1.063 3.238v3.038c0 1.183.275 2.095.825 2.737.558.642 1.413.963 2.563.963.541 0 1.008-.084 1.4-.25.391-.167.716-.392.975-.675.258-.284.454-.592.587-.925v-3.35l.45 1.012-3.287.013v-2.6h6v6.65l-3.225-.013a4.53 4.53 0 0 1-.65 1.487c-.3.442-.73.796-1.288 1.063-.558.258-1.283.387-2.175.387Zm4.15-.337.113-3.287h3.075V17h-3.188Zm11.109.337c-1.217 0-2.238-.254-3.063-.762-.816-.517-1.433-1.258-1.85-2.225-.408-.975-.612-2.15-.612-3.525V7.65c0-2.258.6-3.983 1.8-5.175 1.208-1.192 2.975-1.788 5.3-1.788.75 0 1.437.059 2.062.175.634.109 1.204.25 1.713.426.516.166.962.354 1.337.562l.275 2.825a11.84 11.84 0 0 0-2.087-.825c-.784-.242-1.675-.363-2.675-.363-1.5 0-2.604.359-3.313 1.075-.708.717-1.062 1.796-1.062 3.238v3.038c0 1.183.275 2.095.825 2.737.558.642 1.412.963 2.562.963.542 0 1.009-.084 1.4-.25.392-.167.717-.392.975-.675a3.05 3.05 0 0 0 .588-.925v-3.35l.45 1.012-3.288.013v-2.6h6v6.65l-3.225-.013a4.508 4.508 0 0 1-.65 1.487c-.3.442-.729.796-1.287 1.063-.559.258-1.284.387-2.175.387Zm4.15-.337.112-3.287h3.075V17h-3.187Zm8.319 0h-3.313l4.713-15.975h4.987l4.7 15.975h-3.312l-3.725-13.813h-.3L153.618 17Zm7.487-4.075h-7.225v-2.613h7.225v2.613ZM179.165 17h-3.375l-.362-3.113c-.059-.558-.175-1.024-.35-1.4a1.818 1.818 0 0 0-.788-.85c-.35-.2-.833-.3-1.45-.3l-3.862-.012V8.8l4.062-.013c.909 0 1.559-.208 1.95-.625.4-.425.6-1.029.6-1.812v-.3c0-.775-.2-1.362-.6-1.763-.391-.408-1.05-.612-1.975-.612h-4.075v-2.65h4.538c1.875 0 3.241.38 4.1 1.138.866.758 1.3 1.837 1.3 3.237v.35c0 1.05-.254 1.883-.763 2.5-.508.617-1.316.983-2.425 1.1v.45l-.912-.45c.95.067 1.683.267 2.2.6a2.9 2.9 0 0 1 1.15 1.388c.241.583.425 1.308.55 2.175l.487 3.487Zm-9.237 0h-3.225V1.025h3.2V9.7l.025 1.213V17Zm17.668 0h-3.738v-2.75h3.625c1.142 0 1.996-.308 2.563-.925.575-.625.862-1.517.862-2.675V7.337c0-1.158-.287-2.045-.862-2.662-.567-.617-1.421-.925-2.563-.925h-3.637V1.025h3.75c2.2 0 3.854.542 4.962 1.625 1.109 1.083 1.663 2.642 1.663 4.675v3.337c0 2.042-.554 3.609-1.663 4.7-1.1 1.092-2.754 1.638-4.962 1.638Zm-2.788 0h-3.237V1.025h3.237V17Z" fill="#F8F8F8"/></svg>